<?xml version="1.0" encoding="UTF-8" standalone="no"?>
<svg
   xmlns:dc="http://purl.org/dc/elements/1.1/"
   xmlns:cc="http://creativecommons.org/ns#"
   xmlns:rdf="http://www.w3.org/1999/02/22-rdf-syntax-ns#"
   xmlns:svg="http://www.w3.org/2000/svg"
   xmlns="http://www.w3.org/2000/svg"
   xmlns:sodipodi="http://sodipodi.sourceforge.net/DTD/sodipodi-0.dtd"
   xmlns:inkscape="http://www.inkscape.org/namespaces/inkscape"
   width="81.099998mm"
   height="81.100006mm"
   viewBox="0 0 81.099998 81.100006"
   version="1.1"
   id="svg6222"
   inkscape:version="1.0.1 (3bc2e813f5, 2020-09-07)"
   sodipodi:docname="back_plate_hole.svg">
  <defs
     id="defs6216" />
  <sodipodi:namedview
     id="base"
     pagecolor="#ffffff"
     bordercolor="#666666"
     borderopacity="1.0"
     inkscape:pageopacity="0.0"
     inkscape:pageshadow="2"
     inkscape:zoom="1.6635057"
     inkscape:cx="150"
     inkscape:cy="177.14286"
     inkscape:document-units="mm"
     inkscape:current-layer="layer1"
     inkscape:document-rotation="0"
     showgrid="false"
     fit-margin-top="0"
     fit-margin-left="0"
     fit-margin-right="0"
     fit-margin-bottom="0"
     inkscape:window-width="1920"
     inkscape:window-height="1017"
     inkscape:window-x="-8"
     inkscape:window-y="-8"
     inkscape:window-maximized="1" />
  <metadata
     id="metadata6219">
    <rdf:RDF>
      <cc:Work
         rdf:about="">
        <dc:format>image/svg+xml</dc:format>
        <dc:type
           rdf:resource="http://purl.org/dc/dcmitype/StillImage" />
        <dc:title></dc:title>
      </cc:Work>
    </rdf:RDF>
  </metadata>
  <g
     inkscape:label="Layer 1"
     inkscape:groupmode="layer"
     id="layer1"
     transform="translate(-87.961905,-88.717857)">
    <path
       d="m 88.011905,88.767857 v 7.5 h 3 v 6.000003 h -3 v 6 h 3 v 6 h -3 v 6 h 3 v 6 h -3 v 6 h 3 v 6 h -3 v 6 h 3 v 6 h -3 v 6 h 3 v 6 h -3 v 7.5 h 7.5 v -3 h 5.999995 v 3 h 6 v -3 h 6 v 3 h 6.00001 v -3 h 5.99999 v 3 h 6.00001 v -3 h 5.99999 v 3 h 6.00001 v -3 h 5.99999 v 3 h 6.00001 v -3 h 5.99999 v 3 h 7.5 v -7.5 h -2.99999 v -6 h 2.99999 v -6 h -2.99999 v -6 h 2.99999 v -6 h -2.99999 v -6 h 2.99999 v -6 h -2.99999 v -6 h 2.99999 v -6 h -2.99999 v -6 h 2.99999 v -6 h -2.99999 v -6.000003 h 2.99999 v -7.5 h -7.5 v 3 h -5.99999 v -3 h -6.00001 v 3 h -5.99999 v -3 h -6.00001 v 3 h -5.99999 v -3 h -6.00001 v 3 h -5.99999 v -3 h -6.00001 v 3 h -6 v -3 h -6 v 3 h -5.999995 v -3 z"
       id="front_outsideCutPath"
       stroke="#FF0000"
       stroke-width="0.1"
       style="font-size:12px;fill:none;fill-rule:evenodd;stroke:#ff0000;stroke-width:0.1;stroke-linecap:round"
       vector-effect="non-scaling-stroke" />
    <circle
       style="fill:none;stroke:#ff0000;stroke-width:0.1"
       id="path6791"
       cx="128.5119"
       cy="129.26785"
       r="16.949999" />
  </g>
</svg>
