<?xml version="1.0" encoding="UTF-8" standalone="no"?>
<svg
   xmlns:dc="http://purl.org/dc/elements/1.1/"
   xmlns:cc="http://creativecommons.org/ns#"
   xmlns:rdf="http://www.w3.org/1999/02/22-rdf-syntax-ns#"
   xmlns:svg="http://www.w3.org/2000/svg"
   xmlns="http://www.w3.org/2000/svg"
   xmlns:sodipodi="http://sodipodi.sourceforge.net/DTD/sodipodi-0.dtd"
   xmlns:inkscape="http://www.inkscape.org/namespaces/inkscape"
   width="81.099998mm"
   height="31.1mm"
   viewBox="0 0 81.099998 31.1"
   version="1.1"
   id="svg917"
   inkscape:version="1.0.1 (3bc2e813f5, 2020-09-07)"
   sodipodi:docname="1.svg">
  <defs
     id="defs911" />
  <sodipodi:namedview
     id="base"
     pagecolor="#ffffff"
     bordercolor="#666666"
     borderopacity="1.0"
     inkscape:pageopacity="0.0"
     inkscape:pageshadow="2"
     inkscape:zoom="3.4693975"
     inkscape:cx="149.36056"
     inkscape:cy="58.045338"
     inkscape:document-units="mm"
     inkscape:current-layer="layer1"
     inkscape:document-rotation="0"
     showgrid="false"
     fit-margin-top="0"
     fit-margin-left="0"
     fit-margin-right="0"
     fit-margin-bottom="0"
     inkscape:window-width="1920"
     inkscape:window-height="1017"
     inkscape:window-x="-8"
     inkscape:window-y="-8"
     inkscape:window-maximized="1" />
  <metadata
     id="metadata914">
    <rdf:RDF>
      <cc:Work
         rdf:about="">
        <dc:format>image/svg+xml</dc:format>
        <dc:type
           rdf:resource="http://purl.org/dc/dcmitype/StillImage" />
        <dc:title></dc:title>
      </cc:Work>
    </rdf:RDF>
  </metadata>
  <g
     inkscape:label="Layer 1"
     inkscape:groupmode="layer"
     id="layer1"
     transform="translate(-4.0511905,5.722619)">
    <path
       d="m 7.1011905,-2.672619 v 3.50000005 h -3 V 6.827381 h 3 v 6 h -3 v 6 h 3 v 3.500001 H 11.60119 v 2.999999 h 6 v -2.999999 h 6 v 2.999999 h 6 v -2.999999 h 6.000001 v 2.999999 h 5.999999 v -2.999999 h 6.000001 v 2.999999 h 5.999999 v -2.999999 h 6.000001 v 2.999999 h 5.999999 v -2.999999 h 6.000001 v 2.999999 h 5.999998 v -2.999999 h 4.500002 v -3.500001 h 2.999999 v -6 h -2.999999 v -6 H 85.10119 V 0.82738105 H 82.101191 V -2.672619 h -4.500002 v -3 h -5.999998 v 3 H 65.60119 v -3 h -5.999999 v 3 H 53.60119 v -3 h -5.999999 v 3 H 41.60119 v -3 h -5.999999 v 3 H 29.60119 v -3 h -6 v 3 h -6 v -3 h -6 v 3 z"
       id="bottom_outsideCutPath"
       stroke="#FF0000"
       stroke-width="0.1"
       style="font-size:12px;fill:none;fill-rule:evenodd;stroke:#ff0000;stroke-width:0.1;stroke-linecap:round"
       vector-effect="non-scaling-stroke" />
  </g>
</svg>
