<svg width="199mm" height="165mm" viewBox="0 0 199 165" xmlns="http://www.w3.org/2000/svg" version="1.1" preserveAspectRatio="xMidYMid meet"><g id="svgGroup" stroke-linecap="round" fill-rule="evenodd" font-size="9pt" stroke="#000" stroke-width="0.25mm" fill="none" style="stroke:#000;stroke-width:0.25mm;fill:none"><path d="M 0 84 L 0 91.5 L 3 91.5 L 3 97.5 L 0 97.5 L 0 103.5 L 3 103.5 L 3 109.5 L 0 109.5 L 0 115.5 L 3 115.5 L 3 121.5 L 0 121.5 L 0 127.5 L 3 127.5 L 3 133.5 L 0 133.5 L 0 139.5 L 3 139.5 L 3 145.5 L 0 145.5 L 0 151.5 L 3 151.5 L 3 157.5 L 0 157.5 L 0 165 L 7.5 165 L 7.5 162 L 13.5 162 L 13.5 165 L 19.5 165 L 19.5 162 L 25.5 162 L 25.5 165 L 31.5 165 L 31.5 162 L 37.5 162 L 37.5 165 L 43.5 165 L 43.5 162 L 49.5 162 L 49.5 165 L 55.5 165 L 55.5 162 L 61.5 162 L 61.5 165 L 67.5 165 L 67.5 162 L 73.5 162 L 73.5 165 L 81 165 L 81 157.5 L 78 157.5 L 78 151.5 L 81 151.5 L 81 145.5 L 78 145.5 L 78 139.5 L 81 139.5 L 81 133.5 L 78 133.5 L 78 127.5 L 81 127.5 L 81 121.5 L 78 121.5 L 78 115.5 L 81 115.5 L 81 109.5 L 78 109.5 L 78 103.5 L 81 103.5 L 81 97.5 L 78 97.5 L 78 91.5 L 81 91.5 L 81 84 L 73.5 84 L 73.5 87 L 67.5 87 L 67.5 84 L 61.5 84 L 61.5 87 L 55.5 87 L 55.5 84 L 49.5 84 L 49.5 87 L 43.5 87 L 43.5 84 L 37.5 84 L 37.5 87 L 31.5 87 L 31.5 84 L 25.5 84 L 25.5 87 L 19.5 87 L 19.5 84 L 13.5 84 L 13.5 87 L 7.5 87 L 7.5 84 L 0 84 Z" id="front_outsideCutPath" stroke="#FF0000" stroke-width="0.1" style="stroke:#FF0000;stroke-width:0.1" vector-effect="non-scaling-stroke"/><path d="M 87 84 L 87 91.5 L 84 91.5 L 84 97.5 L 87 97.5 L 87 103.5 L 84 103.5 L 84 109.5 L 87 109.5 L 87 115.5 L 84 115.5 L 84 121.5 L 87 121.5 L 87 127.5 L 84 127.5 L 84 133.5 L 87 133.5 L 87 139.5 L 84 139.5 L 84 145.5 L 87 145.5 L 87 151.5 L 84 151.5 L 84 157.5 L 87 157.5 L 87 165 L 90.5 165 L 90.5 162 L 96.5 162 L 96.5 165 L 102.5 165 L 102.5 162 L 108.5 162 L 108.5 165 L 112 165 L 112 157.5 L 115 157.5 L 115 151.5 L 112 151.5 L 112 145.5 L 115 145.5 L 115 139.5 L 112 139.5 L 112 133.5 L 115 133.5 L 115 127.5 L 112 127.5 L 112 121.5 L 115 121.5 L 115 115.5 L 112 115.5 L 112 109.5 L 115 109.5 L 115 103.5 L 112 103.5 L 112 97.5 L 115 97.5 L 115 91.5 L 112 91.5 L 112 84 L 108.5 84 L 108.5 87 L 102.5 87 L 102.5 84 L 96.5 84 L 96.5 87 L 90.5 87 L 90.5 84 L 87 84 Z" id="left_outsideCutPath" stroke="#FF0000" stroke-width="0.1" style="stroke:#FF0000;stroke-width:0.1" vector-effect="non-scaling-stroke"/><path d="M 121 137 L 121 140.5 L 118 140.5 L 118 146.5 L 121 146.5 L 121 152.5 L 118 152.5 L 118 158.5 L 121 158.5 L 121 162 L 125.5 162 L 125.5 165 L 131.5 165 L 131.5 162 L 137.5 162 L 137.5 165 L 143.5 165 L 143.5 162 L 149.5 162 L 149.5 165 L 155.5 165 L 155.5 162 L 161.5 162 L 161.5 165 L 167.5 165 L 167.5 162 L 173.5 162 L 173.5 165 L 179.5 165 L 179.5 162 L 185.5 162 L 185.5 165 L 191.5 165 L 191.5 162 L 196 162 L 196 158.5 L 199 158.5 L 199 152.5 L 196 152.5 L 196 146.5 L 199 146.5 L 199 140.5 L 196 140.5 L 196 137 L 191.5 137 L 191.5 134 L 185.5 134 L 185.5 137 L 179.5 137 L 179.5 134 L 173.5 134 L 173.5 137 L 167.5 137 L 167.5 134 L 161.5 134 L 161.5 137 L 155.5 137 L 155.5 134 L 149.5 134 L 149.5 137 L 143.5 137 L 143.5 134 L 137.5 134 L 137.5 137 L 131.5 137 L 131.5 134 L 125.5 134 L 125.5 137 L 121 137 Z" id="top_outsideCutPath" stroke="#FF0000" stroke-width="0.1" style="stroke:#FF0000;stroke-width:0.1" vector-effect="non-scaling-stroke"/><path d="M 0 0 L 0 7.5 L 3 7.5 L 3 13.5 L 0 13.5 L 0 19.5 L 3 19.5 L 3 25.5 L 0 25.5 L 0 31.5 L 3 31.5 L 3 37.5 L 0 37.5 L 0 43.5 L 3 43.5 L 3 49.5 L 0 49.5 L 0 55.5 L 3 55.5 L 3 61.5 L 0 61.5 L 0 67.5 L 3 67.5 L 3 73.5 L 0 73.5 L 0 81 L 7.5 81 L 7.5 78 L 13.5 78 L 13.5 81 L 19.5 81 L 19.5 78 L 25.5 78 L 25.5 81 L 31.5 81 L 31.5 78 L 37.5 78 L 37.5 81 L 43.5 81 L 43.5 78 L 49.5 78 L 49.5 81 L 55.5 81 L 55.5 78 L 61.5 78 L 61.5 81 L 67.5 81 L 67.5 78 L 73.5 78 L 73.5 81 L 81 81 L 81 73.5 L 78 73.5 L 78 67.5 L 81 67.5 L 81 61.5 L 78 61.5 L 78 55.5 L 81 55.5 L 81 49.5 L 78 49.5 L 78 43.5 L 81 43.5 L 81 37.5 L 78 37.5 L 78 31.5 L 81 31.5 L 81 25.5 L 78 25.5 L 78 19.5 L 81 19.5 L 81 13.5 L 78 13.5 L 78 7.5 L 81 7.5 L 81 0 L 73.5 0 L 73.5 3 L 67.5 3 L 67.5 0 L 61.5 0 L 61.5 3 L 55.5 3 L 55.5 0 L 49.5 0 L 49.5 3 L 43.5 3 L 43.5 0 L 37.5 0 L 37.5 3 L 31.5 3 L 31.5 0 L 25.5 0 L 25.5 3 L 19.5 3 L 19.5 0 L 13.5 0 L 13.5 3 L 7.5 3 L 7.5 0 L 0 0 Z" id="back_outsideCutPath" stroke="#FF0000" stroke-width="0.1" style="stroke:#FF0000;stroke-width:0.1" vector-effect="non-scaling-stroke"/><path d="M 87 0 L 87 7.5 L 84 7.5 L 84 13.5 L 87 13.5 L 87 19.5 L 84 19.5 L 84 25.5 L 87 25.5 L 87 31.5 L 84 31.5 L 84 37.5 L 87 37.5 L 87 43.5 L 84 43.5 L 84 49.5 L 87 49.5 L 87 55.5 L 84 55.5 L 84 61.5 L 87 61.5 L 87 67.5 L 84 67.5 L 84 73.5 L 87 73.5 L 87 81 L 90.5 81 L 90.5 78 L 96.5 78 L 96.5 81 L 102.5 81 L 102.5 78 L 108.5 78 L 108.5 81 L 112 81 L 112 73.5 L 115 73.5 L 115 67.5 L 112 67.5 L 112 61.5 L 115 61.5 L 115 55.5 L 112 55.5 L 112 49.5 L 115 49.5 L 115 43.5 L 112 43.5 L 112 37.5 L 115 37.5 L 115 31.5 L 112 31.5 L 112 25.5 L 115 25.5 L 115 19.5 L 112 19.5 L 112 13.5 L 115 13.5 L 115 7.5 L 112 7.5 L 112 0 L 108.5 0 L 108.5 3 L 102.5 3 L 102.5 0 L 96.5 0 L 96.5 3 L 90.5 3 L 90.5 0 L 87 0 Z" id="right_outsideCutPath" stroke="#FF0000" stroke-width="0.1" style="stroke:#FF0000;stroke-width:0.1" vector-effect="non-scaling-stroke"/><path d="M 121 103 L 121 106.5 L 118 106.5 L 118 112.5 L 121 112.5 L 121 118.5 L 118 118.5 L 118 124.5 L 121 124.5 L 121 128 L 125.5 128 L 125.5 131 L 131.5 131 L 131.5 128 L 137.5 128 L 137.5 131 L 143.5 131 L 143.5 128 L 149.5 128 L 149.5 131 L 155.5 131 L 155.5 128 L 161.5 128 L 161.5 131 L 167.5 131 L 167.5 128 L 173.5 128 L 173.5 131 L 179.5 131 L 179.5 128 L 185.5 128 L 185.5 131 L 191.5 131 L 191.5 128 L 196 128 L 196 124.5 L 199 124.5 L 199 118.5 L 196 118.5 L 196 112.5 L 199 112.5 L 199 106.5 L 196 106.5 L 196 103 L 191.5 103 L 191.5 100 L 185.5 100 L 185.5 103 L 179.5 103 L 179.5 100 L 173.5 100 L 173.5 103 L 167.5 103 L 167.5 100 L 161.5 100 L 161.5 103 L 155.5 103 L 155.5 100 L 149.5 100 L 149.5 103 L 143.5 103 L 143.5 100 L 137.5 100 L 137.5 103 L 131.5 103 L 131.5 100 L 125.5 100 L 125.5 103 L 121 103 Z" id="bottom_outsideCutPath" stroke="#FF0000" stroke-width="0.1" style="stroke:#FF0000;stroke-width:0.1" vector-effect="non-scaling-stroke"/></g></svg>